<?xml version="1.0" encoding="UTF-8"?>
<svg id="Layer_2" data-name="Layer 2" xmlns="http://www.w3.org/2000/svg" viewBox="0 0 984.23 161.17">
  <g id="Layer_1-2" data-name="Layer 1">
    <g>
      <polygon points="183.66 16.04 166.18 24.7 166.18 37.63 91.86 74.48 39.6 47.93 39.6 100.39 17.51 111.33 17.51 0 28.53 0 28.53 16.42 91.88 49.25 166.18 13.99 179.51 7.66 183.66 16.04"/>
      <polygon points="0 145.14 17.48 136.48 17.48 123.54 91.79 86.7 144.06 113.25 144.06 60.78 166.15 49.85 166.15 161.17 155.13 161.17 155.13 144.75 91.78 111.92 17.48 147.19 4.15 153.51 0 145.14"/>
      <polygon points="357.86 29.6 313.05 89.58 268.23 29.6 241.11 29.6 241.11 131.64 268.69 131.64 268.69 73.58 313.05 130.2 357.4 73.58 357.4 131.64 384.98 131.64 384.98 29.6 357.86 29.6"/>
      <polygon points="802.33 29.6 757.52 89.58 712.71 29.6 685.59 29.6 685.59 131.64 713.16 131.64 713.16 73.58 757.52 130.2 801.88 73.58 801.88 131.64 829.46 131.64 829.46 29.6 802.33 29.6"/>
      <polygon points="519.53 51.89 519.53 29.6 403.43 29.6 403.43 131.64 519.53 131.64 519.53 109.35 430.55 109.35 430.55 90.79 503.44 90.79 503.44 70.28 430.55 70.28 430.55 51.89 519.53 51.89"/>
      <path d="M621.31,89.75h-36.53l18.26-32.91,18.27,32.91ZM617.57,29.54h-29.04l-56.89,102.04h29.93l11.35-20.45h60.26l11.35,20.45h29.93l-56.89-102.04Z"/>
      <path d="M931.09,89.75h-36.53l18.26-32.91,18.27,32.91ZM927.34,29.54h-29.03l-56.89,102.04h29.93l11.35-20.45h60.26l11.35,20.45h29.93l-56.89-102.04Z"/>
    </g>
  </g>
</svg>