<svg width="204" height="24" viewBox="0 0 204 24" fill="none" xmlns="http://www.w3.org/2000/svg">
<path d="M25.669 2.84795L23.2262 4.04805V5.84016L12.8395 10.9448L5.53462 7.26665V14.535L2.44727 16.0504V0.626069H3.98717V2.90171L12.8413 7.44967L23.2262 2.56421L25.089 1.68762L25.669 2.84795Z" fill="white"/>
<path d="M0 20.7347L2.44277 19.5346V17.7427L12.8294 12.6381L20.1344 16.316V9.04763L23.2217 7.5322V22.9565H21.6818V20.6812L12.8274 16.1329L2.44277 21.0187L0.580015 21.8951L0 20.7347Z" fill="white"/>
<path d="M50.0161 4.72665L43.7531 13.0371L37.4897 4.72665H33.6992V18.8639H37.5532V10.8208L43.7531 18.6652L49.9518 10.8208V18.8639H53.8067V4.72665H50.0161Z" fill="white"/>
<path d="M112.137 4.72665L105.874 13.0371L99.6107 4.72665H95.8203V18.8639H99.674V10.8208L105.874 18.6652L112.073 10.8208V18.8639H115.928V4.72665H112.137Z" fill="white"/>
<path d="M72.6111 7.81524V4.72716H56.3848V18.8643H72.6111V15.776H60.1753V13.2046H70.3623V10.3626H60.1753V7.81524H72.6111Z" fill="white"/>
<path d="M86.3144 4.71837H82.2561L74.3047 18.8555H78.4879L80.0744 16.0218H88.4959L90.0824 18.8555H94.2656L86.3144 4.71837ZM86.8374 13.061H81.732L84.2846 8.50099L86.8374 13.061Z" fill="white"/>
<path d="M129.607 4.71837H125.549L117.598 18.8555H121.781L123.368 16.0218H131.789L133.375 18.8555H137.559L129.607 4.71837ZM130.131 13.061H125.025L127.578 8.50099L130.131 13.061Z" fill="white"/>
<line x1="146.527" y1="2.73682" x2="146.527" y2="21.0526" stroke="#BEBEBE" stroke-width="0.842105"/>
<path d="M156.394 19V3.98026L165.572 12.8125C165.822 13.0625 166.075 13.3289 166.332 13.6118C166.588 13.8947 166.858 14.2138 167.141 14.5691V4.55263H169.312V19.5625L159.947 10.5724C159.697 10.3289 159.453 10.0724 159.217 9.80263C158.986 9.5329 158.766 9.25 158.555 8.95395V19H156.394ZM172.638 19V4.55263H180.7V6.54605H174.986V10.1678H180.7V12.2303H174.986V16.898H180.7V19H172.638ZM181.736 19L186.424 11.4408L182.279 4.55263H184.746L186.828 8.08553C186.94 8.26974 187.148 8.65132 187.45 9.23026L187.598 9.51645C187.703 9.3125 187.819 9.0954 187.944 8.86513C188.075 8.63487 188.223 8.38158 188.388 8.10526L190.588 4.55263H192.996L188.773 11.4013L193.322 19H190.726L188.309 14.9046L188.269 14.8355C188.006 14.3421 187.763 13.8783 187.539 13.4441C187.427 13.6678 187.305 13.9013 187.174 14.1447C187.042 14.3816 186.901 14.625 186.749 14.875L184.223 19H181.736ZM199.628 6.54605V19H197.279V6.54605H193.44V4.55263H203.447V6.54605H199.628Z" fill="white"/>
</svg>
